<?xml version="1.0" encoding="utf-8"?>
<svg version="2.0" id="Layer_1" xmlns="http://www.w3.org/2000/svg" xmlns:xlink="http://www.w3.org/1999/xlink" x="0px" y="0px"
	 width="252.08px" height="48px" viewBox="0 0 252.08 48" enable-background="new 0 0 252.08 48" xml:space="preserve">
<g fill="#ece7e9" >
	<path d="M38.87,8c-4.42,0-10.16,1.79-10.35,4l-1.57,18L25.9,42l0,0l-0.35,4h2l-0.18,2h8l0.18-2h0l0.35-4h4h0
		l-0.52,6h10l0.52-6h2l1.05-12h-2l0.08-0.24c1.74-5.15,2.85-10.45,3.32-15.76l0.52-6h-12H38.87z M44.3,14.59
		c-0.08,0.91-0.51,1.77-1.21,2.41c-0.7,0.64-1.13,1.51-1.21,2.41L40.95,30h-4l1.22-14c0.1-1.1,1.07-2,2.17-2h2h2L44.3,14.59z"/>
	<path d="M111.87,8c-4.42,0-10.16,1.79-10.35,4l-1.57,18L98.9,42l0,0l-0.35,4h2l-0.18,2h8l0.18-2h0l0.35-4h4h0
		l-0.52,6h10l0.52-6h2l1.05-12h-2l0.08-0.24c1.74-5.15,2.85-10.45,3.32-15.76l0.52-6h-12H111.87z M117.3,14.59
		c-0.08,0.91-0.51,1.77-1.21,2.41c-0.7,0.64-1.13,1.51-1.21,2.41L113.95,30h-4l1.22-14c0.1-1.1,1.07-2,2.17-2h2h2L117.3,14.59z"/>
	<path d="M0.35,14l-0.17,2L0,18h4l0.17-2h2l0.17-2h2L8.3,14.59C8.22,15.49,7.78,16.36,7.09,17
		c-0.7,0.64-1.13,1.51-1.21,2.41L4.95,30l-0.61,7h0l-0.79,9h2l-0.17,2h8l0.17-2h2l0.17-2h2l1.22-14h-2l-0.61,7h-2l0.61-7l0.08-0.24
		c1.74-5.15,2.85-10.45,3.32-15.76h4l-0.17,2h-2L20,18h4l0.17-2h2l0.17-2l0.52-6h-26L0.35,14z"/>
	<path d="M94.33,37h-2l1.14-13l2.17-2L96,18c0.19-2.21-4.12-4-7.65-4h-4l0.17-2c0.19-2.21-4.12-4-7.65-4h-2h-4h-12
		l-0.52,6h2l-0.05,0.59c-0.08,0.91-0.51,1.77-1.21,2.41c-0.7,0.64-1.13,1.51-1.21,2.41L56.95,30L55.9,42h0l-0.52,6h12l0.52-6h0
		l1.05-12l1.22-14c0.1-1.1,1.52-2,3.17-2h1h2l-0.05,0.59c-0.08,0.91-0.51,1.77-1.21,2.41c-0.7,0.64-1.13,1.51-1.21,2.41L72.95,30
		l-0.61,7l-0.44,5h0l-0.26,3h0l-0.26,2.97h8L79.55,46h2l0.35-4l0.44-5l0.61-7l0.52-6c0.1-1.1,1.52-2,3.17-2h1l-0.7,8l-0.61,7
		l-0.44,5l-0.09,1h0l-0.26,3h2l-0.18,2h4l0.18-2h2l0.17-2h2l0.17-2l1.05-12h-2L94.33,37z"/>
	<path d="M188.88,8L188.88,8L188.88,8l-4,0h-12l-0.52,6h2l-0.05,0.59c-0.08,0.91-0.51,1.77-1.21,2.41
		c-0.7,0.64-1.13,1.51-1.21,2.41L170.95,30l-1.05,12h0l-0.26,3h0l-0.26,3h8l0.17-2h2l0.35-4h6c3.53,0,8.16-1.79,8.35-4l1.57-18
		h-1.22c0.47-1.94,1.03-3.86,1.67-5.76l0.08-0.24l0,0h0C196.64,10.69,192.41,8,188.88,8z M190.3,14.59
		c-0.08,0.91-0.51,1.77-1.21,2.41c-0.7,0.64-1.13,1.51-1.21,2.41L187.83,20l-0.87,10h-6l0.08-0.24c1.74-5.15,2.85-10.45,3.32-15.76
		h3l0,0l3,0L190.3,14.59z"/>
	<path d="M148.65,22h-4h-2l0.52-6c0.1-1.1,1.07-2,2.17-2h4l-0.17,2h-2L147,18h4l0.17-2h2l0.17-2l0.17-2
		c0.19-2.21-4.12-4-7.65-4h-2h-10h-2l-0.52,6h2l-0.05,0.59c-0.08,0.91-0.51,1.77-1.21,2.41c-0.7,0.64-1.13,1.51-1.21,2.41L129.95,30
		c-0.19,2.21,4.12,4,7.65,4h4h2h2l-0.52,6c-0.1,1.1-1.07,2-2.17,2h-2h-4h-4l0.17-2h6l0.17-2h-8l-0.17,2h-2l-0.17,2l-0.17,2
		c-0.19,2.21,4.12,4,7.65,4h4h2h6l0,0h2l0.17-2h2l0.17-2h2l0.17-2l1.4-16C156.49,23.79,152.18,22,148.65,22z"/>
	<path d="M250.08,40l0.17-2l0,0h-4l0,0h-4l-0.17,2h6l-0.17,2h-4h-6l1.05-12l0.08-0.24
		c1.74-5.15,2.85-10.45,3.32-15.76l0.52-6h-12l-0.52,6h2l-0.05,0.59c-0.08,0.91-0.51,1.77-1.21,2.41c-0.7,0.64-1.13,1.51-1.21,2.41
		L228.95,30l-1.05,12l-0.17,2h2l-0.17,2h2.02c-0.01,0.06-0.03,0.11-0.03,0.17L231.38,48h2l0,0h10c3.53,0,8.16-1.79,8.35-4l0.17-2
		l0.17-2H250.08z"/>
	<path d="M216.05,6h5l2.17-2h2l0.09-1l0.26-3h-3h-0.59c-0.14,0-0.28,0.01-0.42,0.03c-0.76,0.09-1.5,0.43-2.09,0.97
		c-0.7,0.64-1.6,1-2.5,1h-0.59h-3l-0.35,4L216.05,6L216.05,6z"/>
	<path d="M210.88,8c-4.42,0-10.23,2.69-10.52,6l-1.4,16l-1.05,12h0l-0.35,4h2l-0.18,2h8l0.18-2h0l0.35-4h4h0l-0.52,6
		h10l0.52-6h2l1.05-12h-2l0.08-0.24c1.74-5.15,2.85-10.45,3.32-15.76l0.52-6h-12H210.88z M216.3,14.59
		c-0.08,0.91-0.51,1.77-1.21,2.41c-0.7,0.64-1.13,1.51-1.21,2.41L212.95,30h-4l1.22-14c0.1-1.1,1.07-2,2.17-2h2h2L216.3,14.59z"/>
	<path d="M117.05,6h5l2.17-2h2l0.09-1l0.26-3h-3h-0.59c-0.14,0-0.28,0.01-0.42,0.03c-0.76,0.09-1.5,0.43-2.09,0.97
		c-0.7,0.64-1.6,1-2.5,1h-0.59h-3l-0.35,4L117.05,6L117.05,6z"/>
</g>
</svg>
